<svg id="Layer_1" height="512" viewBox="0 0 128 128" width="512" xmlns="http://www.w3.org/2000/svg" xmlns:xlink="http://www.w3.org/1999/xlink" data-name="Layer 1"><linearGradient id="linear-gradient" gradientUnits="userSpaceOnUse" x1="97.71" x2="21.346" y1="118.386" y2="42.022"><stop offset="0" stop-color="#1bce89"/><stop offset="1" stop-color="#4e8ed5"/></linearGradient><path d="m12.5 106.592a1.75 1.75 0 0 1 -1.75-1.75v-22.342a1.75 1.75 0 0 1 3.5 0v22.342a1.75 1.75 0 0 1 -1.75 1.75zm110.75-45.162a8.818 8.818 0 0 0 -8.81-8.81 1.75 1.75 0 0 0 0 3.5 5.317 5.317 0 0 1 5.31 5.31 5.316 5.316 0 0 1 -5.31 5.31h-4.86a1.75 1.75 0 1 0 0 3.5 5.316 5.316 0 0 1 5.31 5.31 5.316 5.316 0 0 1 -5.31 5.31h-4.86a1.75 1.75 0 0 0 0 3.5 5.318 5.318 0 0 1 5.311 5.31 5.316 5.316 0 0 1 -5.311 5.31h-4.86a1.75 1.75 0 0 0 0 3.5 5.3 5.3 0 1 1 0 10.61h-29.97a1.75 1.75 0 0 0 0 3.5h29.97a8.815 8.815 0 0 0 8.81-8.8 8.716 8.716 0 0 0 -1.957-5.538 8.825 8.825 0 0 0 6.817-8.583 8.713 8.713 0 0 0 -1.957-5.538 8.825 8.825 0 0 0 6.816-8.583 8.714 8.714 0 0 0 -1.956-5.537 8.825 8.825 0 0 0 6.817-8.581zm-61.139 49.209a1.75 1.75 0 0 1 -1.744 1.625q-.064 0-.127 0c-7.188-.518-12.883-1.593-16.126-3.039h-11.739v1.622a1.75 1.75 0 0 1 -1.75 1.75h-24.125a1.75 1.75 0 0 1 -1.75-1.75v-14.43a1.75 1.75 0 0 1 3.5 0v12.676h20.625v-1.574c0-.016 0-.032 0-.048s0-.032 0-.048v-44.654c0-.016 0-.032 0-.048s0-.032 0-.048v-1.58h-20.625v14.657a1.75 1.75 0 0 1 -3.5 0v-16.408a1.75 1.75 0 0 1 1.75-1.75h24.125a1.75 1.75 0 0 1 1.75 1.75v1.628h12.125c8.726 0 20.026-14.152 21.593-27.041.6-4.933 1.041-8.515 1.361-11.085a8.471 8.471 0 0 1 16.51-1.434l2.229 7.31a30.52 30.52 0 0 1 .436 16.19l-1.912 7.71h21.45a1.75 1.75 0 1 1 0 3.5h-23.687a1.75 1.75 0 0 1 -1.7-2.171l2.449-9.88a27.012 27.012 0 0 0 -.386-14.33l-2.229-7.309a4.971 4.971 0 0 0 -9.688.84c-.321 2.574-.761 6.152-1.36 11.081-1.679 13.827-13.266 28.399-23.316 29.972v41.988c2.964 1.116 8.144 2.018 14.241 2.457a1.75 1.75 0 0 1 1.62 1.871zm-19.361-4.919v-41.25h-10.375v41.25zm-36.25-15.053a1.75 1.75 0 0 0 1.75-1.75v-5a1.75 1.75 0 0 0 -3.5 0v5a1.75 1.75 0 0 0 1.75 1.75z" fill="url(#linear-gradient)"/></svg>